<svg xmlns="http://www.w3.org/2000/svg" viewBox="0 0 256 256">
  <title>Damwild</title>
  <path fill="currentColor" fill-rule="evenodd" d="M181.4 22.7 L182.2 30.6 L175.1 29.8 L177.5 41.7 L171.9 40.9 L175.1 61.5 L169.6 63.1 L186.2 73.4 L186.2 78.9 L179.1 82.1 L164.8 75.8 L159.3 60.7 L160.9 75.8 L145.8 64.7 L145.0 42.5 L156.1 29.0 L149.8 26.7 L152.1 18.0 L141.9 24.3 L137.9 14.0 L127.6 26.7 L118.9 21.1 L121.3 35.4 L113.4 35.4 L118.9 44.1 L114.9 48.0 L129.2 64.7 L126.0 68.6 L175.9 84.5 L179.1 90.8 L160.1 85.2 L166.4 95.5 L175.1 97.9 L160.9 121.7 L76.1 120.9 L52.4 134.3 L50.0 161.2 L57.9 133.5 L57.1 151.8 L54.0 145.4 L59.5 169.2 L45.3 185.8 L39.7 240.4 L49.2 240.4 L44.5 223.8 L50.8 199.2 L75.4 177.1 L68.2 195.3 L88.0 238.8 L83.3 241.2 L118.1 241.2 L95.1 239.6 L84.9 225.4 L78.5 199.2 L97.5 170.0 L135.5 173.1 L134.7 166.0 L137.9 233.3 L141.1 240.4 L148.2 240.4 L142.6 219.8 L151.4 173.9 L153.7 232.5 L158.5 240.4 L165.6 240.4 L156.1 211.9 L160.9 173.1 L151.4 172.3 L164.8 170.0 L184.6 146.2 L194.1 116.1 L188.6 113.8 L211.5 113.8 L217.1 107.4 L194.9 90.0 L202.0 82.1 L192.5 86.8 L205.2 77.3 L208.4 67.0 L202.8 76.5 L190.9 78.9 L199.6 64.7 L193.3 71.0 L189.4 67.8 L190.9 33.8 Z M84.1 169.2 L84.9 170.0 L84.9 170.8 L81.7 173.9 L80.9 173.9 L76.9 177.9 L76.1 177.9 L75.4 177.1 L80.1 172.3 L80.9 172.3 Z M84.9 167.6 L86.4 166.0 L86.4 165.2 L87.2 164.4 L87.2 163.6 L88.0 162.8 L88.0 162.0 L88.8 161.2 L89.6 162.0 L89.6 163.6 L88.8 164.4 L88.8 165.2 L88.0 166.0 L88.0 166.8 L90.4 166.8 L91.2 167.6 L92.8 167.6 L93.6 168.4 L95.1 168.4 L95.9 169.2 L96.7 169.2 L97.5 170.0 L96.7 170.8 L95.1 170.8 L94.4 170.0 L92.8 170.0 L92.0 169.2 L89.6 169.2 L88.8 168.4 L88.0 168.4 L87.2 169.2 L85.6 169.2 L84.9 168.4 Z M91.2 151.0 L92.0 151.8 L92.0 152.5 L92.8 153.3 L92.8 154.1 L93.6 154.9 L93.6 155.7 L95.9 158.1 L95.1 158.9 L94.4 158.9 L92.0 156.5 L92.0 155.7 L90.4 154.1 L90.4 151.8 Z M187.8 81.3 L188.6 82.1 L188.6 83.7 L187.8 84.5 L187.8 86.0 L187.0 86.8 L186.2 86.8 L183.8 84.5 L187.0 81.3 Z"/>
</svg>