<svg xmlns="http://www.w3.org/2000/svg" viewBox="0 0 256 256">
  <title>Federwild</title>
  <path fill="currentColor" fill-rule="evenodd" d="M241.3 54.5 L235.4 52.2 L215.5 54.5 L219.2 60.3 L211.1 84.6 L203.0 92.0 L155.9 107.4 L121.4 133.9 L55.2 153.0 L35.3 163.3 L14.0 180.2 L41.9 163.3 L80.9 153.0 L45.6 170.7 L22.8 189.8 L38.3 178.0 L61.1 167.0 L118.4 150.8 L114.8 158.9 L134.6 155.9 L131.7 163.3 L144.2 158.9 L158.9 164.8 L155.2 190.5 L147.9 193.5 L153.7 194.2 L156.7 200.8 L134.6 202.3 L175.1 201.5 L158.9 194.2 L160.4 175.1 L173.6 165.5 L178.0 166.2 L177.3 172.9 L186.8 192.7 L181.0 200.1 L187.6 197.1 L196.4 202.3 L209.6 200.8 L193.5 197.1 L183.9 175.8 L194.2 160.4 L219.2 143.4 L229.5 127.3 L235.4 102.3 L233.9 75.8 L241.3 70.6 Z M158.9 155.2 L158.2 155.9 L153.7 155.9 L153.0 156.7 L151.5 156.7 L150.8 157.4 L149.3 157.4 L148.6 156.7 L149.3 155.9 L150.1 155.9 L150.8 155.2 L152.3 155.2 L153.0 154.5 L154.5 154.5 L155.2 153.7 L156.7 153.7 L157.4 154.5 L158.2 154.5 Z M169.9 151.5 L169.2 152.3 L168.5 152.3 L167.7 153.0 L166.2 153.0 L165.5 153.7 L164.0 153.7 L163.3 154.5 L162.6 154.5 L161.8 155.2 L158.9 155.2 L158.2 154.5 L158.9 153.7 L161.1 153.7 L161.8 153.0 L162.6 153.0 L163.3 152.3 L164.8 152.3 L165.5 151.5 L167.0 151.5 L167.7 150.8 L169.2 150.8 Z M178.7 147.1 L177.3 148.6 L176.5 148.6 L175.8 149.3 L175.1 149.3 L174.3 150.1 L173.6 150.1 L172.9 150.8 L172.1 150.8 L171.4 151.5 L169.9 151.5 L169.2 150.8 L169.9 150.1 L170.7 150.1 L171.4 149.3 L172.1 149.3 L172.9 148.6 L173.6 148.6 L174.3 147.9 L175.1 147.9 L175.8 147.1 L176.5 147.1 L177.3 146.4 L178.0 146.4 Z M204.5 108.9 L205.2 109.6 L205.2 110.3 L206.0 111.1 L206.0 116.2 L205.2 117.0 L203.8 117.0 L203.0 116.2 L203.8 115.5 L204.5 115.5 L204.5 112.6 L203.8 113.3 L203.0 112.6 L203.0 111.8 L203.8 111.1 L203.8 109.6 Z M212.6 82.4 L213.3 81.7 L214.8 81.7 L215.5 82.4 L217.0 82.4 L217.7 83.1 L219.2 83.1 L219.9 83.9 L220.7 83.9 L221.4 84.6 L222.9 84.6 L223.6 85.3 L225.8 85.3 L226.6 86.1 L228.8 86.1 L229.5 86.8 L230.2 86.8 L231.0 87.5 L229.5 89.0 L222.1 89.0 L221.4 88.3 L219.9 88.3 L219.2 87.5 L217.7 87.5 L217.0 86.8 L216.3 86.8 L214.1 84.6 L213.3 84.6 L212.6 83.9 Z M227.3 60.3 L228.0 61.1 L228.0 64.7 L228.8 65.5 L228.8 66.2 L231.0 68.4 L232.4 68.4 L233.9 69.9 L233.2 70.6 L231.7 70.6 L231.0 69.9 L230.2 69.9 L227.3 67.0 L227.3 66.2 L226.6 65.5 L226.6 61.1 Z M227.3 58.1 L227.3 57.4 L228.0 56.7 L228.8 56.7 L229.5 55.9 L230.2 55.9 L231.0 55.2 L232.4 55.2 L233.2 54.5 L233.9 54.5 L234.6 55.2 L236.9 55.2 L238.3 56.7 L238.3 57.4 L237.6 58.1 L236.1 56.7 L231.7 56.7 L231.0 57.4 L230.2 57.4 L229.5 58.1 L228.8 58.1 L228.0 58.9 Z"/>
</svg>