<svg xmlns="http://www.w3.org/2000/svg" viewBox="0 0 256 256">
  <title>Hasenartig</title>
  <path fill="currentColor" fill-rule="evenodd" d="M165.5 14.0 L161.6 23.7 L168.4 31.5 L164.5 30.6 L171.4 47.1 L174.3 77.3 L168.4 69.5 L173.3 72.5 L160.6 27.6 L163.6 28.6 L148.0 15.0 L142.1 18.9 L149.9 50.1 L170.4 81.2 L163.6 104.6 L153.8 111.4 L83.7 121.2 L62.2 133.8 L43.7 158.2 L37.9 190.4 L46.6 211.8 L28.1 203.0 L27.2 208.9 L34.0 220.6 L46.6 227.4 L66.1 222.5 L69.1 216.7 L61.3 234.2 L63.2 239.1 L159.7 240.1 L142.1 240.1 L132.4 228.4 L119.7 228.4 L126.5 240.1 L115.8 229.3 L80.7 227.4 L110.0 192.3 L115.8 176.7 L106.1 157.2 L86.6 151.4 L107.1 155.3 L116.8 167.0 L117.8 181.6 L83.7 227.4 L96.3 227.4 L131.4 187.4 L146.0 184.5 L170.4 237.1 L189.9 240.1 L189.9 235.2 L191.8 239.1 L200.6 239.1 L185.0 225.4 L178.2 181.6 L172.3 183.5 L188.9 172.8 L199.6 154.3 L204.5 122.2 L193.8 121.2 L220.1 119.2 L227.9 105.6 L221.1 105.6 L213.3 84.2 L200.6 81.2 L203.5 78.3 L188.9 72.5 L182.1 38.4 Z M170.4 182.6 L171.4 182.6 L173.3 184.5 L172.3 185.5 L171.4 185.5 L170.4 186.5 L170.4 187.4 L169.4 188.4 L169.4 198.2 L170.4 199.1 L170.4 202.1 L171.4 203.0 L171.4 205.9 L172.3 206.9 L172.3 209.8 L173.3 210.8 L173.3 213.7 L174.3 214.7 L174.3 216.7 L175.3 217.6 L175.3 220.6 L176.2 221.5 L176.2 223.5 L177.2 224.5 L177.2 225.4 L178.2 226.4 L178.2 227.4 L181.1 230.3 L185.0 230.3 L186.0 231.3 L186.9 231.3 L189.9 234.2 L189.9 235.2 L188.9 236.2 L186.0 233.2 L184.0 233.2 L183.1 232.3 L180.1 232.3 L176.2 228.4 L176.2 227.4 L175.3 226.4 L175.3 225.4 L174.3 224.5 L174.3 222.5 L173.3 221.5 L173.3 218.6 L172.3 217.6 L172.3 215.7 L171.4 214.7 L171.4 211.8 L170.4 210.8 L170.4 208.9 L169.4 207.9 L169.4 205.0 L168.4 204.0 L168.4 200.1 L167.5 199.1 L167.5 195.2 L166.5 194.3 L166.5 189.4 L167.5 188.4 L167.5 186.5 L168.4 185.5 L168.4 184.5 Z M191.8 88.1 L192.8 87.1 L199.6 87.1 L202.5 90.0 L202.5 91.0 L203.5 91.9 L203.5 93.9 L202.5 94.9 L201.6 93.9 L201.6 92.9 L200.6 91.9 L200.6 91.0 L198.6 89.0 L193.8 89.0 L192.8 90.0 L191.8 89.0 Z"/>
</svg>