<svg xmlns="http://www.w3.org/2000/svg" viewBox="0 0 256 256">
  <title>Raubwild</title>
  <path fill="currentColor" fill-rule="evenodd" d="M226.0 59.8 L224.5 59.8 L222.2 62.0 L221.4 62.0 L214.5 68.9 L214.5 72.7 L215.3 73.5 L216.1 73.5 L216.8 74.2 L217.6 74.2 L218.4 75.0 L219.1 75.0 L220.6 76.5 L220.6 75.8 L221.4 75.0 L221.4 73.5 L222.2 72.7 L222.2 70.4 L222.9 69.7 L222.9 67.4 L223.7 66.6 L223.7 65.1 L224.5 64.3 L224.5 62.8 L225.2 62.0 L225.2 60.5 Z M241.2 100.9 L229.0 91.8 L220.6 78.1 L213.8 76.5 L213.0 73.5 L210.7 75.8 L212.3 57.5 L175.7 95.6 L156.6 97.9 L113.9 95.6 L72.7 111.6 L20.1 157.4 L31.5 157.4 L34.6 171.8 L29.3 175.7 L15.5 176.4 L20.1 158.9 L14.0 176.4 L33.1 175.7 L61.3 161.2 L81.1 140.6 L89.5 113.1 L88.0 142.9 L73.5 162.7 L68.1 185.6 L70.4 197.0 L80.3 197.0 L75.0 184.8 L82.6 166.5 L104.7 151.3 L117.7 136.8 L123.8 139.1 L117.7 139.8 L108.6 149.7 L103.2 167.3 L119.2 196.2 L110.8 197.0 L171.1 197.8 L166.5 197.8 L158.9 190.1 L158.9 181.0 L165.7 152.8 L173.4 145.9 L190.9 185.6 L200.1 197.0 L211.5 197.0 L211.5 193.2 L203.1 190.1 L197.0 181.0 L187.9 150.5 L188.6 143.6 L206.2 123.0 L214.5 107.0 L234.4 107.0 Z M129.1 139.8 L130.7 139.8 L131.4 140.6 L133.0 140.6 L133.7 141.3 L136.8 141.3 L137.5 142.1 L141.3 142.1 L142.1 142.9 L145.9 142.9 L146.7 143.6 L153.5 143.6 L154.3 144.4 L153.5 145.2 L154.3 145.9 L154.3 149.0 L153.5 149.7 L153.5 162.7 L152.8 163.5 L152.8 176.4 L152.0 177.2 L152.0 181.8 L151.3 182.5 L151.3 183.3 L152.8 185.6 L152.8 194.7 L153.5 195.5 L153.5 196.2 L152.8 197.0 L130.7 197.0 L129.9 196.2 L129.9 194.0 L126.9 190.9 L126.1 190.9 L125.3 190.1 L122.3 190.1 L120.8 188.6 L120.8 187.9 L119.2 186.3 L117.7 182.5 L116.2 181.0 L116.2 180.2 L113.9 176.4 L113.9 174.9 L113.1 174.1 L113.1 167.3 L113.9 166.5 L115.4 162.7 L123.0 153.5 L125.3 148.2 L126.9 146.7 L126.9 145.2 L127.6 144.4 L127.6 142.1 Z M238.2 103.2 L238.2 104.7 L235.9 106.3 L231.3 106.3 L223.7 103.2 L219.9 103.2 L222.9 103.2 L231.3 106.3 L230.6 107.0 L227.5 107.0 L223.7 105.5 L216.8 105.5 L210.7 107.8 L212.3 107.0 L213.0 108.6 L210.7 111.6 L210.0 115.4 L208.4 116.2 L206.9 120.0 L205.4 120.8 L204.6 123.0 L203.1 123.8 L202.3 126.1 L199.3 129.9 L198.5 128.4 L197.8 132.2 L196.2 133.0 L195.5 134.5 L194.0 134.5 L188.6 140.6 L187.9 139.8 L184.0 143.6 L182.5 142.9 L183.3 142.1 L182.5 142.1 L178.7 145.2 L177.9 143.6 L176.4 145.2 L174.9 144.4 L172.6 145.9 L171.1 145.2 L177.9 140.6 L177.2 141.3 L176.4 140.6 L177.2 139.1 L178.7 138.3 L180.2 139.1 L181.0 136.8 L182.5 135.2 L184.0 136.0 L183.3 137.5 L184.8 136.0 L187.1 129.9 L188.6 132.2 L189.4 129.9 L188.6 126.9 L190.1 125.3 L188.6 124.6 L194.0 120.8 L194.7 120.8 L195.5 122.3 L194.7 120.8 L196.2 117.7 L197.8 119.2 L197.8 117.7 L195.5 116.2 L196.2 115.4 L199.3 116.2 L197.8 115.4 L200.1 113.9 L198.5 113.1 L200.8 110.8 L199.3 110.1 L203.9 108.6 L202.3 109.3 L200.8 108.6 L203.9 106.3 L202.3 105.5 L203.9 104.0 L202.3 104.7 L201.6 104.0 L202.3 102.5 L206.9 101.7 L205.4 100.9 L206.2 100.2 L221.4 98.6 L226.0 100.9 L235.9 100.9 Z"/>
</svg>