<svg xmlns="http://www.w3.org/2000/svg" viewBox="0 0 256 256">
  <title>Rehwild</title>
  <path fill="currentColor" fill-rule="evenodd" d="M188.5 14.0 L190.3 27.3 L186.8 28.1 L193.8 36.1 L193.0 52.0 L183.2 39.6 L183.2 26.4 L180.6 32.6 L176.2 29.0 L173.5 14.0 L174.4 28.1 L170.9 29.9 L178.8 36.1 L185.9 53.8 L184.1 55.5 L172.6 40.5 L165.6 37.9 L169.1 54.7 L179.7 65.3 L172.6 96.2 L166.4 104.1 L78.1 103.3 L51.6 117.4 L49.8 135.1 L52.4 125.3 L58.6 157.2 L49.8 169.5 L39.2 175.7 L28.6 226.1 L33.0 240.2 L41.8 240.2 L35.7 223.4 L45.4 190.7 L71.9 169.5 L63.0 185.4 L79.0 230.5 L86.0 239.3 L65.7 240.2 L145.2 241.1 L139.9 230.5 L140.8 209.3 L153.2 161.6 L163.8 231.4 L169.1 240.2 L177.0 240.2 L170.0 229.6 L165.6 209.3 L165.6 158.9 L175.3 150.1 L190.3 123.6 L198.3 101.5 L197.4 89.1 L221.2 89.1 L226.5 82.9 L200.9 57.3 L205.3 36.1 L196.5 50.2 L198.3 25.5 L194.7 30.8 Z M153.2 161.6 L153.2 160.7 L154.1 159.8 L154.1 158.9 L155.0 158.0 L155.8 158.9 L155.8 159.8 L157.6 159.8 L158.5 158.9 L162.0 158.9 L162.9 159.8 L162.0 160.7 L160.3 160.7 L159.4 161.6 L155.0 161.6 L154.1 162.5 Z M91.3 150.1 L92.2 151.0 L92.2 152.7 L91.3 153.6 L94.0 153.6 L105.5 158.0 L109.0 158.0 L109.9 158.9 L113.4 158.9 L114.3 159.8 L135.5 159.8 L136.4 160.7 L136.4 171.3 L137.3 172.2 L137.3 208.4 L136.4 209.3 L136.4 216.4 L135.5 217.3 L135.5 221.7 L134.6 222.6 L134.6 227.0 L133.7 227.9 L133.7 231.4 L136.4 233.2 L136.4 238.5 L137.3 239.3 L136.4 240.2 L95.7 240.2 L91.3 234.0 L86.0 228.7 L81.6 219.0 L81.6 217.3 L78.1 208.4 L78.1 205.8 L76.3 202.2 L76.3 198.7 L75.4 197.8 L75.4 189.9 L79.8 181.0 L92.2 167.8 L98.4 158.0 L98.4 157.2 L96.6 157.2 L95.7 156.3 L93.1 156.3 L92.2 155.4 L90.4 155.4 L89.6 156.3 L88.7 155.4 Z"/>
</svg>