<svg xmlns="http://www.w3.org/2000/svg" viewBox="0 0 256 256">
  <title>Rotwild</title>
  <path fill="currentColor" fill-rule="evenodd" d="M195.2 26.6 L189.7 47.0 L181.1 20.3 L180.3 37.6 L165.3 20.3 L176.4 43.9 L154.3 27.4 L163.8 41.5 L185.0 53.3 L188.9 73.8 L184.2 77.7 L172.4 73.8 L171.6 53.3 L168.5 73.8 L155.1 67.5 L149.6 41.5 L151.2 65.1 L140.2 57.2 L133.9 36.8 L141.8 14.8 L131.5 30.5 L132.3 16.4 L126.0 36.0 L119.7 14.0 L122.1 42.3 L107.2 27.4 L111.9 40.7 L141.8 65.9 L181.1 86.3 L163.0 80.8 L166.9 90.3 L176.4 94.2 L157.5 117.0 L73.4 119.4 L47.4 135.9 L46.6 150.8 L52.1 137.4 L53.7 171.2 L40.3 188.5 L33.3 230.2 L36.4 241.2 L43.5 241.2 L39.6 226.3 L45.8 201.9 L72.6 176.0 L63.1 197.2 L77.3 234.9 L89.9 241.2 L74.1 206.6 L93.0 172.8 L82.0 169.7 L74.9 176.0 L82.8 165.7 L100.9 173.6 L133.1 175.2 L135.5 241.2 L141.8 241.2 L137.8 223.9 L148.8 174.4 L156.7 174.4 L148.8 176.7 L154.3 234.1 L166.1 241.2 L156.7 214.5 L159.1 175.2 L191.3 146.9 L198.4 114.6 L222.0 107.6 L197.6 87.1 L206.2 78.5 L194.4 83.2 L217.2 65.1 L217.2 54.9 L214.1 67.5 L199.9 73.8 L207.8 65.1 L207.8 48.6 L204.7 65.9 L192.1 73.8 L198.4 60.4 L197.6 51.0 L193.6 65.1 L188.9 59.6 Z M188.1 77.7 L188.9 77.7 L189.7 78.5 L189.7 82.4 L188.9 83.2 L188.1 83.2 L185.8 80.8 L185.8 80.0 Z"/>
</svg>