<svg xmlns="http://www.w3.org/2000/svg" viewBox="0 0 256 256">
  <title>Schwarzwild</title>
  <path fill="currentColor" fill-rule="evenodd" d="M241.3 144.6 L234.6 141.7 L230.2 129.8 L221.3 122.5 L214.7 110.7 L207.3 71.6 L202.9 77.5 L208.8 84.1 L196.3 74.5 L194.8 84.1 L191.1 70.1 L178.5 64.9 L176.3 83.4 L179.3 93.7 L175.6 88.5 L175.6 71.6 L172.6 67.9 L142.4 58.3 L65.7 76.7 L23.6 109.9 L21.4 123.2 L14.0 132.8 L17.0 131.3 L14.7 142.4 L24.3 131.3 L25.1 134.3 L27.3 115.8 L38.3 105.5 L39.1 145.3 L28.8 156.4 L23.6 180.8 L25.1 188.1 L27.3 185.9 L34.7 196.3 L42.0 195.5 L36.1 184.4 L41.3 166.0 L66.4 151.2 L65.7 168.2 L78.2 188.1 L87.8 194.8 L67.1 196.3 L149.0 197.0 L141.7 186.7 L140.9 173.4 L152.0 150.5 L151.2 158.6 L163.0 166.0 L166.0 171.9 L167.5 169.0 L172.6 173.4 L177.1 185.9 L179.3 183.7 L184.4 190.3 L193.3 191.8 L170.4 146.1 L184.4 143.1 L183.7 145.3 L208.1 152.7 L232.4 154.9 Z M92.2 148.3 L93.7 149.0 L93.0 149.8 L98.1 148.3 L98.9 147.6 L99.6 149.0 L98.1 149.8 L100.3 149.8 L104.0 148.3 L105.5 149.0 L104.8 149.8 L109.2 147.6 L110.7 148.3 L109.9 149.0 L111.4 148.3 L113.6 148.3 L114.3 149.0 L117.3 147.6 L118.8 148.3 L118.0 149.0 L119.5 148.3 L121.7 148.3 L122.5 147.6 L125.4 147.6 L126.2 148.3 L125.4 149.0 L126.2 149.8 L124.7 152.0 L124.7 152.7 L125.4 152.0 L126.2 152.7 L125.4 157.9 L124.7 158.6 L126.2 156.4 L127.6 157.1 L125.4 161.6 L126.9 160.1 L127.6 160.8 L126.2 165.3 L127.6 163.0 L128.4 163.8 L128.4 165.3 L126.9 166.7 L128.4 167.5 L127.6 169.0 L129.1 167.5 L129.8 168.2 L129.1 169.7 L130.6 169.7 L131.3 170.4 L131.3 174.9 L130.6 175.6 L130.6 177.8 L129.1 180.0 L130.6 180.8 L129.1 183.0 L129.1 184.4 L129.8 185.2 L129.8 188.9 L131.3 191.1 L132.1 188.9 L132.8 188.1 L133.5 188.9 L134.3 191.8 L136.5 194.8 L135.7 196.3 L101.8 196.3 L101.1 195.5 L100.3 196.3 L95.9 191.1 L95.9 190.3 L94.4 189.6 L93.7 188.1 L88.5 183.7 L87.8 181.5 L82.6 174.9 L81.9 170.4 L81.1 169.7 L81.1 166.7 L81.9 165.3 L83.4 164.5 L84.1 160.8 L86.3 159.4 L87.0 156.4 L88.5 154.9 L90.0 150.5 Z M156.4 145.3 L157.1 146.1 L157.1 146.8 L154.9 149.0 L155.7 148.3 L156.4 148.3 L157.1 149.0 L155.7 150.5 L154.2 150.5 L153.5 151.2 L152.7 151.2 L152.0 150.5 L152.7 149.8 L152.7 149.0 Z M75.2 143.1 L76.0 143.9 L76.0 144.6 L68.6 152.0 L67.9 152.0 L67.1 151.2 L67.1 150.5 L68.6 149.0 L69.3 149.0 Z M218.4 136.5 L219.1 136.5 L219.9 137.2 L219.9 141.7 L220.6 142.4 L220.6 143.9 L221.3 144.6 L221.3 145.3 L220.6 146.1 L219.9 146.1 L217.7 143.9 L217.7 143.1 L216.9 142.4 L216.9 140.2 L217.7 139.4 L217.7 137.2 Z"/>
</svg>