<svg xmlns="http://www.w3.org/2000/svg" viewBox="0 0 256 256">
  <title>Sonstiges</title>
  <path fill="currentColor" fill-rule="evenodd" d="M75.5 224.7 L179.2 224.7 L172.8 218.3 L172.8 217.0 L170.3 214.5 L170.3 213.2 L167.7 210.6 L167.7 209.3 L165.1 206.8 L163.9 202.9 L161.3 200.4 L161.3 199.1 L157.5 195.2 L157.5 194.0 L148.5 185.0 L147.2 185.0 L145.9 183.7 L144.7 183.7 L138.2 179.9 L135.7 179.9 L134.4 178.6 L120.3 178.6 L119.0 179.9 L116.5 179.9 L115.2 181.2 L112.6 181.2 L110.1 183.7 L108.8 183.7 L106.2 186.3 L104.9 186.3 L96.0 195.2 L96.0 196.5 L90.9 202.9 L89.6 206.8 L87.0 209.3 L87.0 210.6 L84.4 213.2 L84.4 214.5 L81.9 217.0 L81.9 218.3 Z M221.5 133.8 L220.2 133.8 L218.9 135.0 L215.1 135.0 L213.8 136.3 L212.5 136.3 L199.7 149.1 L199.7 150.4 L195.9 154.3 L194.6 158.1 L192.0 160.7 L192.0 161.9 L190.8 163.2 L190.8 164.5 L189.5 165.8 L189.5 167.1 L188.2 168.3 L188.2 169.6 L185.6 173.5 L185.6 177.3 L184.4 178.6 L184.4 185.0 L183.1 186.3 L183.1 195.2 L184.4 196.5 L184.4 201.7 L186.9 205.5 L186.9 208.1 L190.8 211.9 L190.8 213.2 L193.3 215.7 L194.6 215.7 L197.2 218.3 L198.4 218.3 L202.3 220.9 L216.4 220.9 L217.7 219.6 L221.5 218.3 L231.8 208.1 L233.0 204.2 L235.6 201.7 L235.6 199.1 L238.2 195.2 L238.2 191.4 L239.4 190.1 L239.4 186.3 L240.7 185.0 L240.7 161.9 L239.4 160.7 L239.4 155.5 L238.2 154.3 L238.2 151.7 L236.9 150.4 L236.9 149.1 L235.6 147.9 L234.3 144.0 L231.8 141.4 L231.8 140.2 L227.9 136.3 L226.6 136.3 L225.3 135.0 L222.8 135.0 Z M33.2 133.8 L31.9 135.0 L29.4 135.0 L28.1 136.3 L26.8 136.3 L23.0 140.2 L23.0 141.4 L20.4 144.0 L20.4 145.3 L19.1 146.6 L19.1 147.9 L16.6 151.7 L16.6 155.5 L15.3 156.8 L15.3 160.7 L14.0 161.9 L14.0 185.0 L15.3 186.3 L15.3 190.1 L16.6 191.4 L16.6 195.2 L19.1 199.1 L19.1 201.7 L21.7 204.2 L23.0 208.1 L31.9 217.0 L33.2 217.0 L35.8 219.6 L38.3 219.6 L39.6 220.9 L52.4 220.9 L53.7 219.6 L57.6 218.3 L61.4 214.5 L62.7 214.5 L64.0 213.2 L64.0 211.9 L66.5 209.3 L66.5 208.1 L69.1 204.2 L69.1 201.7 L70.4 200.4 L70.4 195.2 L71.6 194.0 L71.6 185.0 L70.4 183.7 L70.4 178.6 L69.1 177.3 L69.1 174.8 L67.8 173.5 L67.8 170.9 L65.2 167.1 L65.2 164.5 L62.7 161.9 L61.4 158.1 L58.8 155.5 L58.8 154.3 L56.3 151.7 L56.3 150.4 L51.1 145.3 L51.1 144.0 L46.0 138.9 L44.7 138.9 L42.2 136.3 L40.9 136.3 L39.6 135.0 L37.1 135.0 L35.8 133.8 Z M222.8 100.5 L222.8 113.3 L221.5 114.6 L221.5 122.2 L220.2 123.5 L220.2 124.8 L221.5 126.1 L225.3 126.1 L226.6 127.4 L229.2 127.4 L229.2 115.8 L227.9 114.6 L227.9 110.7 L226.6 109.4 L226.6 108.1 L225.3 106.9 L225.3 105.6 L224.1 104.3 L224.1 103.0 L222.8 101.7 Z M33.2 100.5 L30.7 103.0 L30.7 104.3 L29.4 105.6 L29.4 108.1 L28.1 109.4 L28.1 112.0 L26.8 113.3 L26.8 117.1 L25.5 118.4 L25.5 126.1 L26.8 127.4 L28.1 127.4 L29.4 126.1 L34.5 126.1 L34.5 121.0 L33.2 119.7 Z M87.0 65.9 L85.7 67.2 L83.2 67.2 L74.2 76.1 L72.9 80.0 L70.4 82.5 L70.4 83.8 L69.1 85.1 L69.1 87.7 L67.8 88.9 L67.8 90.2 L66.5 91.5 L66.5 94.1 L65.2 95.3 L65.2 99.2 L64.0 100.5 L64.0 106.9 L62.7 108.1 L62.7 124.8 L64.0 126.1 L64.0 132.5 L65.2 133.8 L65.2 136.3 L66.5 137.6 L66.5 140.2 L67.8 141.4 L67.8 142.7 L69.1 144.0 L69.1 145.3 L70.4 146.6 L71.6 150.4 L80.6 159.4 L81.9 159.4 L83.2 160.7 L85.7 160.7 L87.0 161.9 L92.1 161.9 L93.4 163.2 L94.7 161.9 L99.8 161.9 L101.1 160.7 L103.7 160.7 L106.2 158.1 L107.5 158.1 L112.6 153.0 L112.6 151.7 L115.2 149.1 L115.2 147.9 L117.8 144.0 L117.8 141.4 L119.0 140.2 L119.0 137.6 L120.3 136.3 L120.3 127.4 L121.6 126.1 L121.6 121.0 L120.3 119.7 L120.3 112.0 L119.0 110.7 L119.0 105.6 L117.8 104.3 L117.8 101.7 L116.5 100.5 L116.5 96.6 L113.9 92.8 L113.9 90.2 L112.6 88.9 L112.6 87.7 L111.3 86.4 L111.3 85.1 L110.1 83.8 L110.1 82.5 L108.8 81.2 L107.5 77.4 L104.9 74.8 L104.9 73.6 L98.5 67.2 L97.3 67.2 L96.0 65.9 Z M163.9 64.6 L162.6 65.9 L160.0 65.9 L158.7 67.2 L154.9 68.4 L152.3 71.0 L152.3 72.3 L147.2 78.7 L147.2 80.0 L145.9 81.2 L145.9 82.5 L144.7 83.8 L144.7 85.1 L140.8 91.5 L140.8 94.1 L139.5 95.3 L139.5 97.9 L138.2 99.2 L138.2 101.7 L137.0 103.0 L137.0 105.6 L135.7 106.9 L135.7 112.0 L134.4 113.3 L134.4 133.8 L135.7 135.0 L135.7 140.2 L137.0 141.4 L137.0 144.0 L138.2 145.3 L139.5 149.1 L142.1 151.7 L142.1 153.0 L147.2 158.1 L148.5 158.1 L154.9 161.9 L167.7 161.9 L169.0 160.7 L171.6 160.7 L172.8 159.4 L174.1 159.4 L183.1 150.4 L183.1 149.1 L185.6 146.6 L185.6 145.3 L188.2 141.4 L188.2 138.9 L189.5 137.6 L189.5 135.0 L190.8 133.8 L190.8 129.9 L192.0 128.6 L192.0 104.3 L190.8 103.0 L190.8 97.9 L189.5 96.6 L189.5 94.1 L188.2 92.8 L188.2 90.2 L186.9 88.9 L186.9 86.4 L185.6 85.1 L184.4 81.2 L179.2 74.8 L179.2 73.6 L175.4 69.7 L174.1 69.7 L171.6 67.2 L170.3 67.2 L169.0 65.9 L165.1 65.9 Z M97.3 31.3 L94.7 33.9 L94.7 35.1 L93.4 36.4 L93.4 37.7 L92.1 39.0 L92.1 40.3 L90.9 41.5 L90.9 42.8 L89.6 44.1 L89.6 49.2 L88.3 50.5 L88.3 56.9 L97.3 56.9 L97.3 50.5 L96.0 49.2 L96.0 40.3 L97.3 39.0 Z M158.7 30.0 L158.7 36.4 L160.0 37.7 L160.0 50.5 L158.7 51.8 L158.7 55.6 L160.0 56.9 L167.7 56.9 L167.7 47.9 L166.4 46.7 L166.4 44.1 L165.1 42.8 L165.1 40.3 L163.9 39.0 L163.9 37.7 L161.3 35.1 L161.3 33.9 L158.7 31.3 Z"/>
</svg>